{"accessors":[{"name":"polySurface3_Untitled_polySurface3_Untitled-Mesh.002_polySurface3_Untitled_polySurface3_Untitled-Mesh.002-Mesh-Mesh_positions","componentType":5126,"count":1148,"min":[-0.31138700246810913,-0.03176499903202057,-0.4032819867134094],"max":[0.3097119927406311,0.1324930042028427,0.32537299394607544],"type":"VEC3","bufferView":0,"byteOffset":0},{"name":"polySurface3_Untitled_polySurface3_Untitled-Mesh.002_polySurface3_Untitled_polySurface3_Untitled-Mesh.002-Mesh-Mesh_normals","componentType":5126,"count":1148,"min":[-0.9988999962806702,-1,-0.9891999959945679],"max":[0.9988999962806702,0.9998999834060669,1],"type":"VEC3","bufferView":0,"byteOffset":13776},{"name":"polySurface3_Untitled_polySurface3_Untitled-Mesh.002_polySurface3_Untitled_polySurface3_Untitled-Mesh.002-Mesh-Mesh_0_indices","componentType":5123,"count":1092,"min":[0],"max":[1039],"type":"SCALAR","bufferView":1,"byteOffset":0},{"name":"polySurface3_Untitled_polySurface3_Untitled-Mesh.002_polySurface3_Untitled_polySurface3_Untitled-Mesh.002-Mesh-Mesh_1_indices","componentType":5123,"count":36,"min":[1040],"max":[1075],"type":"SCALAR","bufferView":1,"byteOffset":2184},{"name":"polySurface3_Untitled_polySurface3_Untitled-Mesh.002_polySurface3_Untitled_polySurface3_Untitled-Mesh.002-Mesh-Mesh_2_indices","componentType":5123,"count":96,"min":[1076],"max":[1147],"type":"SCALAR","bufferView":1,"byteOffset":2256}],"asset":{"generator":"obj2gltf","version":"2.0"},"buffers":[{"name":"input","byteLength":30000,"uri":"data:application/octet-stream;base64,"}],"bufferViews":[{"name":"bufferView_0","buffer":0,"byteLength":27552,"byteOffset":0,"byteStride":12,"target":34962},{"name":"bufferView_1","buffer":0,"byteLength":2448,"byteOffset":27552,"target":34963}],"materials":[{"name":"lambert2_002-effect","pbrMetallicRoughness":{"baseColorFactor":[0.5,0.5,0.5,1],"metallicFactor":0,"roughnessFactor":1},"emissiveFactor":[0,0,0],"alphaMode":"OPAQUE","doubleSided":false},{"name":"lam_balck_engine_002-effect","pbrMetallicRoughness":{"baseColorFactor":[0.5,0.5,0.5,1],"metallicFactor":0,"roughnessFactor":1},"emissiveFactor":[0,0,0],"alphaMode":"OPAQUE","doubleSided":false},{"name":"T_lam_plane_windows_002-effect","pbrMetallicRoughness":{"baseColorFactor":[0.5,0.5,0.5,1],"metallicFactor":0,"roughnessFactor":1},"emissiveFactor":[0,0,0],"alphaMode":"OPAQUE","doubleSided":false}],"meshes":[{"name":"polySurface3_Untitled_polySurface3_Untitled-Mesh.002_polySurface3_Untitled_polySurface3_Untitled-Mesh.002-Mesh-Mesh","primitives":[{"attributes":{"POSITION":0,"NORMAL":1},"indices":2,"material":0,"mode":4},{"attributes":{"POSITION":0,"NORMAL":1},"indices":3,"material":1,"mode":4},{"attributes":{"POSITION":0,"NORMAL":1},"indices":4,"material":2,"mode":4}]}],"nodes":[{"name":"polySurface3_Untitled_polySurface3_Untitled-Mesh.002_polySurface3_Untitled_polySurface3_Untitled-Mesh.002-Mesh","mesh":0}],"scene":0,"scenes":[{"nodes":[0]}]}
