{
    "asset": {
        "generator": "COLLADA2GLTF",
        "version": "2.0"
    },
    "scenes": [
        {
            "nodes": [
                0
            ]
        }
    ],
    "scene": 0,
    "nodes": [
        {
            "children": [
                2,
                1
            ],
            "matrix": [
                1.0,
                0.0,
                0.0,
                0.0,
                0.0,
                0.0,
                -1.0,
                0.0,
                0.0,
                1.0,
                0.0,
                0.0,
                0.0,
                0.0,
                0.0,
                1.0
            ],
            "name": "Z_UP"
        },
        {
            "mesh": 0,
            "name": "Cube"
        },
        {
            "matrix": [
                0.6859207153320313,
                0.7276763319969177,
                0.0,
                0.0,
                -0.32401350140571597,
                0.30542081594467165,
                0.8953956365585327,
                0.0,
                0.6515582203865051,
                -0.6141704320907593,
                0.44527140259742739,
                0.0,
                9.198467254638672,
                -10.063119888305664,
                8.422845840454102,
                1.0
            ],
            "camera": 0,
            "name": "Camera"
        }
    ],
    "cameras": [
        {
            "perspective": {
                "yfov": 0.4823747575283051,
                "zfar": 100.0,
                "znear": 0.10000000149011612
            },
            "type": "perspective",
            "name": "Camera"
        }
    ],
    "meshes": [
        {
            "primitives": [
                {
                    "attributes": {
                        "NORMAL": 1,
                        "POSITION": 2
                    },
                    "indices": 0,
                    "mode": 4,
                    "material": 0
                },
                {
                    "attributes": {
                        "NORMAL": 4,
                        "POSITION": 5
                    },
                    "indices": 3,
                    "mode": 4,
                    "material": 1
                },
                {
                    "attributes": {
                        "NORMAL": 7,
                        "POSITION": 8
                    },
                    "indices": 6,
                    "mode": 4,
                    "material": 2
                }
            ],
            "name": "Cube"
        }
    ],
    "accessors": [
        {
            "bufferView": 0,
            "byteOffset": 0,
            "componentType": 5123,
            "count": 192,
            "max": [
                39
            ],
            "min": [
                0
            ],
            "type": "SCALAR"
        },
        {
            "bufferView": 1,
            "byteOffset": 0,
            "componentType": 5126,
            "count": 40,
            "max": [
                0.8822532296180725,
                1.0,
                0.7917354106903076
            ],
            "min": [
                -0.8840481042861939,
                -1.0,
                -0.8240202069282532
            ],
            "type": "VEC3"
        },
        {
            "bufferView": 1,
            "byteOffset": 480,
            "componentType": 5126,
            "count": 40,
            "max": [
                3.3950350284576418,
                1.0,
                1.8954789638519288
            ],
            "min": [
                -5.451717853546143,
                -1.0,
                0.4683099091053009
            ],
            "type": "VEC3"
        },
        {
            "bufferView": 0,
            "byteOffset": 384,
            "componentType": 5123,
            "count": 36,
            "max": [
                11
            ],
            "min": [
                0
            ],
            "type": "SCALAR"
        },
        {
            "bufferView": 1,
            "byteOffset": 960,
            "componentType": 5126,
            "count": 12,
            "max": [
                0.3233506977558136,
                1.0,
                0.7917354106903076
            ],
            "min": [
                0.0,
                -1.0,
                0.0
            ],
            "type": "VEC3"
        },
        {
            "bufferView": 1,
            "byteOffset": 1104,
            "componentType": 5126,
            "count": 12,
            "max": [
                2.9547719955444338,
                0.4000000059604645,
                1.629359006881714
            ],
            "min": [
                1.815467953681946,
                -0.4000000059604645,
                1.0062789916992188
            ],
            "type": "VEC3"
        },
        {
            "bufferView": 0,
            "byteOffset": 456,
            "componentType": 5123,
            "count": 180,
            "max": [
                35
            ],
            "min": [
                0
            ],
            "type": "SCALAR"
        },
        {
            "bufferView": 1,
            "byteOffset": 1248,
            "componentType": 5126,
            "count": 36,
            "max": [
                0.7549461126327515,
                0.7815384268760681,
                0.9347040057182312
            ],
            "min": [
                -0.905648410320282,
                -0.7805519700050354,
                -0.5905532240867615
            ],
            "type": "VEC3"
        },
        {
            "bufferView": 1,
            "byteOffset": 1680,
            "componentType": 5126,
            "count": 36,
            "max": [
                1.0,
                6.0,
                3.7247819900512697
            ],
            "min": [
                -5.451722145080566,
                -6.0,
                1.5584379434585572
            ],
            "type": "VEC3"
        }
    ],
    "materials": [
        {
            "pbrMetallicRoughness": {
                "baseColorFactor": [
                    0.5815073251724243,
                    0.6644333004951477,
                    0.7523127794265747,
                    1.0
                ],
                "metallicFactor": 0.0
            },
            "emissiveFactor": [
                0.0,
                0.0,
                0.0
            ],
            "name": "Material-effect"
        },
        {
            "pbrMetallicRoughness": {
                "baseColorFactor": [
                    0.10418710112571717,
                    0.2231820970773697,
                    0.5987201929092407,
                    1.0
                ],
                "metallicFactor": 0.0
            },
            "emissiveFactor": [
                0.0,
                0.0,
                0.0
            ],
            "name": "Window-effect"
        },
        {
            "pbrMetallicRoughness": {
                "baseColorFactor": [
                    0.6399999856948853,
                    0.0007482609944418073,
                    0.0007482609944418073,
                    1.0
                ],
                "metallicFactor": 0.0
            },
            "emissiveFactor": [
                0.0,
                0.0,
                0.0
            ],
            "name": "Wing-effect"
        }
    ],
    "bufferViews": [
        {
            "buffer": 0,
            "byteOffset": 2112,
            "byteLength": 816,
            "target": 34963
        },
        {
            "buffer": 0,
            "byteOffset": 0,
            "byteLength": 2112,
            "byteStride": 12,
            "target": 34962
        }
    ],
    "buffers": [
        {
            "byteLength": 2928,
            "uri": "data:application/octet-stream;base64,"
        }
    ]
}
