<?xml version="1.0" standalone="no"?>
<!DOCTYPE svg PUBLIC "-//W3C//DTD SVG 1.1//EN" 
  "http://www.w3.org/Graphics/SVG/1.1/DTD/svg11.dtd">
<svg width="270.510mm" height="68.580mm" version="1.1"
     viewBox="0 0 270.510 68.580"
     xmlns="http://www.w3.org/2000/svg"  xmlns:xlink="http://www.w3.org/1999/xlink" 
     xmlns:fpd="http://www.schaeffer-ag.de">
  <desc>Created with the Front Panel Designer by the export of the file 'panel_F2.fpd'.</desc>
  <defs>
    <pattern id="revside-fill" x="1" y="1" width="2.705" height="2.705" patternUnits="userSpaceOnUse">
      <line x1="0" y1="0" x2="2.705" y2="2.705" style="stroke-width:0.271; stroke:black; stroke-dasharray:none;" />
      <line x1="0" y1="2.705" x2="2.705" y2="0" style="stroke-width:0.271; stroke:black; stroke-dasharray:none;" />
    </pattern>
    <pattern id="revside-fill-silver" x="1" y="1" width="2.705" height="2.705" patternUnits="userSpaceOnUse">
      <line x1="0" y1="0" x2="2.705" y2="2.705" style="stroke-width:0.271; stroke:#e0e0e0; stroke-dasharray:none;" />
      <line x1="0" y1="2.705" x2="2.705" y2="0" style="stroke-width:0.271; stroke:#e0e0e0; stroke-dasharray:none;" />
    </pattern>
  </defs>
<g transform="scale(1,-1) translate( -0.000, -68.580)" 
   fill-rule="evenodd"
   style="stroke-linecap:round; stroke-linejoin:round; stroke-opacity:1.0; stroke-opacity:1.0;">
<path d="
M264.160 68.580
A6.350,6.350 0 0,0 270.510,62.230
L270.510 6.350
A6.350,6.350 0 0,0 264.160,0.000
L6.350 0.000
A6.350,6.350 0 0,0 0.000,6.350
L0.000 62.230
A6.350,6.350 0 0,0 6.350,68.580
L264.160 68.580
" 
fill="#0f0f0f" vector-effect="non-scaling-stroke" stroke="#000000" stroke-width="0.100mm" fpd:visible="front back" />
<path d="
M4.173 50.820
L5.854 50.820
L5.854 50.710
L4.311 50.710
L4.311 49.525
L5.716 49.525
L5.716 49.636
L4.311 49.636
L4.311 48.313
L4.173 48.313
L4.173 50.765
L4.035 50.903
L4.035 48.258
L4.448 48.258
L4.448 49.443
L5.771 49.443
L5.771 49.718
L4.448 49.718
L4.448 50.627
L5.909 50.627
L5.909 50.903
L4.035 50.903
" 
fill="none" vector-effect="non-scaling-stroke" stroke="#ffffff" stroke-width="0.200mm" fpd:visible="front" fpd:print_element="1" fpd:engraving="1" />
<path d="
M6.789 50.213
L6.927 50.213
A0.473,0.473 0 0,0 7.065,50.544
A0.689,0.689 0 0,0 7.974,50.599
A0.629,0.629 0 0,0 7.974,49.607
L6.872 48.725
A0.506,0.506 0 0,1 6.734,48.367
L8.470 48.367
L8.470 48.450
L6.872 48.450
A0.219,0.219 0 0,0 6.955,48.670
L8.112 49.580
A0.672,0.672 0 0,1 8.195,50.544
A0.862,0.862 0 0,1 6.955,50.599
A0.534,0.534 0 0,1 6.789,50.213
L6.652 50.103
L7.037 50.103
A0.551,0.551 0 0,0 7.258,50.544
A0.522,0.522 0 0,0 7.947,50.489
A0.561,0.561 0 0,0 7.892,49.662
L6.872 48.891
A0.729,0.729 0 0,1 6.597,48.257
L8.553 48.257
L8.553 48.533
L7.010 48.533
A0.248,0.248 0 0,0 7.093,48.643
L8.112 49.442
A0.894,0.894 0 0,1 8.470,50.103
A0.735,0.735 0 0,1 8.084,50.792
A1.076,1.076 0 0,1 7.065,50.792
A0.784,0.784 0 0,1 6.652,50.103
" 
fill="none" vector-effect="non-scaling-stroke" stroke="#ffffff" stroke-width="0.200mm" fpd:visible="front" fpd:print_element="1" fpd:engraving="1" />
<path d="
M2.730 46.061
L9.970 46.061
L9.970 52.999
L2.730 52.999
L2.730 46.061
" 
fill="none" vector-effect="non-scaling-stroke" stroke="#ffffff" stroke-width="0.400mm" fpd:visible="front" fpd:print_element="1" fpd:engraving="1" />
<path d="
M184.520 58.227
L185.223 56.292
L185.399 56.292
L186.103 58.227
L185.993 58.227
L185.377 56.468
L185.245 56.468
L184.608 58.227
L184.520 58.227
L184.366 58.315
L185.136 56.204
L185.465 56.204
L186.235 58.315
L185.905 58.315
L185.311 56.644
L185.311 56.204
L185.311 56.644
L184.696 58.315
L184.366 58.315
" 
fill="none" vector-effect="non-scaling-stroke" stroke="#ffffff" stroke-width="0.200mm" fpd:visible="front" fpd:print_element="1" fpd:engraving="1" />
<path d="
M187.027 58.161
L187.027 56.314
L186.917 56.314
L186.917 58.227
L187.730 58.227
A0.572,0.572 0 0,0 187.730,57.084
L187.027 57.084
L187.137 57.216
L187.620 57.216
A0.440,0.440 0 0,1 187.620,58.095
L187.137 58.095
L187.137 57.216
L187.137 57.150
L187.752 57.150
A0.511,0.511 0 0,1 187.708,58.161
L187.027 58.161
L186.807 58.315
L187.730 58.315
A0.660,0.660 0 0,0 187.730,56.996
L187.137 56.996
L187.137 56.204
L186.807 56.204
L186.807 58.315
" 
fill="none" vector-effect="non-scaling-stroke" stroke="#ffffff" stroke-width="0.200mm" fpd:visible="front" fpd:print_element="1" fpd:engraving="1" />
<path d="
M189.182 58.249
L189.072 58.249
L189.072 56.820
A0.491,0.491 0 0,1 189.248,56.446
A0.858,0.858 0 0,1 190.347,56.446
A0.491,0.491 0 0,1 190.523,56.820
L190.523 58.249
L190.413 58.249
L190.413 56.820
A0.446,0.446 0 0,0 190.215,56.446
A0.725,0.725 0 0,0 189.402,56.446
A0.500,0.500 0 0,0 189.182,56.820
L189.182 58.249
L189.292 58.315
L188.962 58.315
L188.962 56.820
A0.581,0.581 0 0,1 189.226,56.336
A1.064,1.064 0 0,1 190.369,56.336
A0.581,0.581 0 0,1 190.633,56.820
L190.633 58.315
L190.303 58.315
L190.303 56.820
A0.385,0.385 0 0,0 190.149,56.512
A0.590,0.590 0 0,0 189.446,56.512
A0.385,0.385 0 0,0 189.292,56.820
L189.292 58.315
" 
fill="none" vector-effect="non-scaling-stroke" stroke="#ffffff" stroke-width="0.200mm" fpd:visible="front" fpd:print_element="1" fpd:engraving="1" />
<path d="
M193.515 57.897
L193.647 58.029
L193.647 57.831
L193.119 57.831
A0.607,0.607 0 0,1 193.691,58.227
L193.822 58.227
L193.822 56.270
L193.713 56.270
L193.713 58.139
L193.932 58.315
L193.603 58.315
A0.579,0.579 0 0,0 193.053,57.919
L193.053 57.765
L193.603 57.765
L193.603 56.204
L193.932 56.204
L193.932 58.315
" 
fill="none" vector-effect="non-scaling-stroke" stroke="#ffffff" stroke-width="0.200mm" fpd:visible="front" fpd:print_element="1" fpd:engraving="1" />
<path d="
M196.549 58.161
L196.549 56.336
L197.406 56.336
A0.457,0.457 0 0,1 197.736,56.952
A0.576,0.576 0 0,1 197.340,57.281
L196.725 57.281
L196.725 57.369
L197.318 57.369
A0.440,0.440 0 0,1 197.362,58.249
L196.439 58.249
L196.439 56.270
L197.472 56.270
A0.526,0.526 0 0,1 197.890,56.754
A0.529,0.529 0 0,1 197.340,57.281
L197.318 57.369
L197.472 57.457
A0.377,0.377 0 0,1 197.340,58.161
L196.549 58.161
L196.659 58.095
L197.230 58.095
A0.330,0.330 0 0,0 197.230,57.435
L196.659 57.435
L196.659 57.216
L197.274 57.216
A0.396,0.396 0 0,0 197.274,56.424
L196.659 56.424
L196.659 58.095
L196.329 58.315
L197.384 58.315
A0.495,0.495 0 0,0 197.384,57.325
A0.649,0.649 0 0,0 197.824,57.150
A0.534,0.534 0 0,0 197.824,56.380
A0.649,0.649 0 0,0 197.384,56.204
L196.329 56.204
L196.329 58.315
" 
fill="none" vector-effect="non-scaling-stroke" stroke="#ffffff" stroke-width="0.200mm" fpd:visible="front" fpd:print_element="1" fpd:engraving="1" />
<path d="
M198.659 58.249
L200.000 58.249
L200.000 58.161
L198.769 58.161
L198.769 57.216
L199.890 57.216
L199.890 57.303
L198.769 57.303
L198.769 56.248
L198.659 56.248
L198.659 58.205
L198.549 58.315
L198.549 56.204
L198.879 56.204
L198.879 57.150
L199.934 57.150
L199.934 57.369
L198.879 57.369
L198.879 58.095
L200.044 58.095
L200.044 58.315
L198.549 58.315
" 
fill="none" vector-effect="non-scaling-stroke" stroke="#ffffff" stroke-width="0.200mm" fpd:visible="front" fpd:print_element="1" fpd:engraving="1" />
<path d="
M202.111 57.808
A0.574,0.574 0 0,1 201.759,58.182
A0.774,0.774 0 0,1 201.034,58.072
A0.377,0.377 0 0,1 201.144,57.412
L201.913 57.237
A0.459,0.459 0 0,0 202.089,56.423
A0.981,0.981 0 0,0 200.990,56.357
A0.548,0.548 0 0,0 200.726,56.753
L200.836 56.753
A0.477,0.477 0 0,1 201.078,56.401
A0.881,0.881 0 0,1 202.001,56.445
A0.391,0.391 0 0,1 201.869,57.149
L201.122 57.324
A0.459,0.459 0 0,0 201.034,58.182
A1.058,1.058 0 0,0 201.803,58.248
A0.607,0.607 0 0,0 202.221,57.808
L202.331 57.742
A0.550,0.550 0 0,1 202.001,58.248
A1.243,1.243 0 0,1 200.990,58.248
A0.536,0.536 0 0,1 201.078,57.237
L201.825 57.061
A0.309,0.309 0 0,0 201.935,56.511
A0.710,0.710 0 0,0 201.122,56.511
A0.408,0.408 0 0,0 200.946,56.819
L200.616 56.819
A0.608,0.608 0 0,1 200.968,56.269
A1.255,1.255 0 0,1 202.023,56.269
A0.608,0.608 0 0,1 202.375,56.819
A0.519,0.519 0 0,1 201.979,57.324
L201.188 57.522
A0.264,0.264 0 0,0 200.990,57.742
A0.300,0.300 0 0,0 201.144,58.050
A0.682,0.682 0 0,0 201.825,58.050
A0.366,0.366 0 0,0 202.023,57.742
L202.331 57.742
" 
fill="none" vector-effect="non-scaling-stroke" stroke="#ffffff" stroke-width="0.200mm" fpd:visible="front" fpd:print_element="1" fpd:engraving="1" />
<path d="
M191.765 53.957
A0.793,0.793 0 0,0 193.084,53.957
A1.106,1.106 0 0,0 193.084,52.638
A0.786,0.786 0 0,0 191.765,52.638
A1.106,1.106 0 0,0 191.765,53.957
L191.853 53.957
A1.201,1.201 0 0,1 191.853,52.638
A0.718,0.718 0 0,1 192.996,52.638
A1.201,1.201 0 0,1 192.996,53.957
A0.711,0.711 0 0,1 191.853,53.957
L191.831 53.759
A1.373,1.373 0 0,1 191.831,52.836
A0.632,0.632 0 0,1 193.018,52.836
A1.373,1.373 0 0,1 193.018,53.759
A0.632,0.632 0 0,1 191.831,53.759
L191.677 54.023
A1.217,1.217 0 0,1 191.677,52.572
A0.930,0.930 0 0,1 193.172,52.572
A1.217,1.217 0 0,1 193.172,54.023
A0.930,0.930 0 0,1 191.677,54.023
" 
fill="none" vector-effect="non-scaling-stroke" stroke="#ffffff" stroke-width="0.200mm" fpd:visible="front" fpd:print_element="1" fpd:engraving="1" />
<path d="
M194.183 53.627
L194.183 52.286
L194.073 52.286
L194.073 53.627
L194.183 53.627
L194.271 53.693
L194.271 52.242
L193.985 52.242
L193.985 53.693
L194.271 53.693
L194.271 53.385
A0.518,0.518 0 0,0 195.150,53.583
A0.582,0.582 0 0,0 195.304,53.188
L195.304 52.242
L195.018 52.242
L195.018 53.188
A0.420,0.420 0 0,1 194.908,53.473
A0.357,0.357 0 0,1 194.381,53.473
A0.420,0.420 0 0,1 194.271,53.188
A0.430,0.430 0 0,0 194.491,53.605
A0.466,0.466 0 0,0 195.216,53.232
L195.216 52.286
L195.106 52.286
L195.106 53.232
A0.402,0.402 0 0,1 194.776,53.627
" 
fill="none" vector-effect="non-scaling-stroke" stroke="#ffffff" stroke-width="0.200mm" fpd:visible="front" fpd:print_element="1" fpd:engraving="1" />
<path d="
M191.556 16.500
A0.726,0.726 0 0,0 192.765,16.500
A1.014,1.014 0 0,0 192.765,15.292
A0.720,0.720 0 0,0 191.556,15.292
A1.014,1.014 0 0,0 191.556,16.500
L191.637 16.500
A1.100,1.100 0 0,1 191.637,15.292
A0.658,0.658 0 0,1 192.684,15.292
A1.100,1.100 0 0,1 192.684,16.500
A0.652,0.652 0 0,1 191.637,16.500
L191.617 16.319
A1.258,1.258 0 0,1 191.617,15.473
A0.579,0.579 0 0,1 192.704,15.473
A1.258,1.258 0 0,1 192.704,16.319
A0.579,0.579 0 0,1 191.617,16.319
L191.476 16.561
A1.115,1.115 0 0,1 191.476,15.231
A0.852,0.852 0 0,1 192.845,15.231
A1.115,1.115 0 0,1 192.845,16.561
A0.852,0.852 0 0,1 191.476,16.561
" 
fill="none" vector-effect="non-scaling-stroke" stroke="#ffffff" stroke-width="0.200mm" fpd:visible="front" fpd:print_element="1" fpd:engraving="1" />
<path d="
M193.611 16.218
L194.215 16.218
L194.276 16.299
L194.276 16.138
L193.571 16.138
L193.571 16.299
L194.276 16.299
L193.933 16.299
L193.933 16.480
L193.933 14.989
L193.833 14.989
L193.833 16.521
A0.281,0.281 0 0,0 194.115,16.803
L194.195 16.803
L194.195 16.722
A0.241,0.241 0 0,1 193.933,16.480
L194.014 16.480
L194.014 14.929
L193.752 14.929
L193.752 16.500
A0.361,0.361 0 0,0 194.115,16.863
L194.276 16.863
L194.276 16.662
L194.195 16.662
A0.180,0.180 0 0,1 194.014,16.480
" 
fill="none" vector-effect="non-scaling-stroke" stroke="#ffffff" stroke-width="0.200mm" fpd:visible="front" fpd:print_element="1" fpd:engraving="1" />
<path d="
M194.819 16.218
L195.423 16.218
L195.484 16.299
L195.484 16.138
L194.779 16.138
L194.779 16.299
L195.484 16.299
L195.141 16.299
L195.141 16.480
L195.141 14.989
L195.041 14.989
L195.041 16.521
A0.281,0.281 0 0,0 195.323,16.803
L195.403 16.803
L195.403 16.722
A0.241,0.241 0 0,1 195.141,16.480
L195.222 16.480
L195.222 14.929
L194.960 14.929
L194.960 16.500
A0.361,0.361 0 0,0 195.323,16.863
L195.484 16.863
L195.484 16.662
L195.403 16.662
A0.180,0.180 0 0,1 195.222,16.480
" 
fill="none" vector-effect="non-scaling-stroke" stroke="#ffffff" stroke-width="0.200mm" fpd:visible="front" fpd:print_element="1" fpd:engraving="1" />
<path d="
M29.044 58.246
L30.385 58.246
L30.385 58.158
L29.154 58.158
L29.154 57.213
L30.275 57.213
L30.275 57.300
L29.154 57.300
L29.154 56.245
L29.044 56.245
L29.044 58.202
L28.934 58.312
L28.934 56.201
L29.264 56.201
L29.264 57.147
L30.319 57.147
L30.319 57.366
L29.264 57.366
L29.264 58.092
L30.429 58.092
L30.429 58.312
L28.934 58.312
" 
fill="none" vector-effect="non-scaling-stroke" stroke="#ffffff" stroke-width="0.200mm" fpd:visible="front" fpd:print_element="1" fpd:engraving="1" />
<path d="
M32.695 57.783
L32.607 57.783
L32.497 57.959
A0.712,0.712 0 0,1 31.398,57.915
A1.201,1.201 0 0,1 31.398,56.596
A0.698,0.698 0 0,1 32.519,56.574
L32.673 56.838
L32.761 56.838
A1.098,1.098 0 0,0 32.629,56.596
A0.780,0.780 0 0,0 31.310,56.596
A1.106,1.106 0 0,0 31.310,57.915
A0.780,0.780 0 0,0 32.629,57.915
A0.895,0.895 0 0,0 32.717,57.805
L32.871 57.717
L32.563 57.717
A0.632,0.632 0 0,1 31.376,57.717
A1.373,1.373 0 0,1 31.376,56.794
A0.632,0.632 0 0,1 32.563,56.794
A1.440,1.440 0 0,1 32.585,56.882
L32.893 56.882
A1.257,1.257 0 0,0 32.717,56.530
A0.930,0.930 0 0,0 31.222,56.530
A1.217,1.217 0 0,0 31.222,57.981
A0.930,0.930 0 0,0 32.717,57.981
A1.217,1.217 0 0,0 32.871,57.717
" 
fill="none" vector-effect="non-scaling-stroke" stroke="#ffffff" stroke-width="0.200mm" fpd:visible="front" fpd:print_element="1" fpd:engraving="1" />
<path d="
M33.619 56.288
L33.619 58.157
L33.553 58.223
L33.905 58.223
L34.476 56.420
L34.564 56.420
L35.136 58.223
L35.488 58.223
L35.488 56.266
L35.444 56.266
L35.444 58.179
L35.400 58.179
L35.400 56.266
L35.356 56.266
L35.356 58.157
L35.202 58.157
L34.630 56.288
L34.410 56.288
L33.817 58.157
L33.663 58.157
L33.663 56.266
L33.553 56.266
L33.553 58.223
L33.465 58.311
L33.971 58.311
L34.520 56.574
L34.520 56.200
L34.454 56.354
L34.586 56.354
L34.520 56.574
L35.070 58.311
L35.576 58.311
L35.576 56.200
L35.290 56.200
L35.290 58.091
L34.674 56.200
L34.344 56.200
L33.751 58.091
L33.751 56.200
L33.465 56.200
L33.465 58.311
" 
fill="none" vector-effect="non-scaling-stroke" stroke="#ffffff" stroke-width="0.200mm" fpd:visible="front" fpd:print_element="1" fpd:engraving="1" />
<path d="
M38.456 57.893
L38.588 58.025
L38.588 57.827
L38.060 57.827
A0.607,0.607 0 0,1 38.632,58.223
L38.764 58.223
L38.764 56.266
L38.654 56.266
L38.654 58.135
L38.873 58.311
L38.544 58.311
A0.579,0.579 0 0,0 37.994,57.915
L37.994 57.761
L38.544 57.761
L38.544 56.200
L38.873 56.200
L38.873 58.311
" 
fill="none" vector-effect="non-scaling-stroke" stroke="#ffffff" stroke-width="0.200mm" fpd:visible="front" fpd:print_element="1" fpd:engraving="1" />
<path d="
M32.298 53.954
A0.793,0.793 0 0,0 33.617,53.954
A1.106,1.106 0 0,0 33.617,52.635
A0.786,0.786 0 0,0 32.298,52.635
A1.106,1.106 0 0,0 32.298,53.954
L32.386 53.954
A1.201,1.201 0 0,1 32.386,52.635
A0.718,0.718 0 0,1 33.529,52.635
A1.201,1.201 0 0,1 33.529,53.954
A0.711,0.711 0 0,1 32.386,53.954
L32.364 53.756
A1.373,1.373 0 0,1 32.364,52.833
A0.632,0.632 0 0,1 33.551,52.833
A1.373,1.373 0 0,1 33.551,53.756
A0.632,0.632 0 0,1 32.364,53.756
L32.210 54.020
A1.217,1.217 0 0,1 32.210,52.569
A0.930,0.930 0 0,1 33.705,52.569
A1.217,1.217 0 0,1 33.705,54.020
A0.930,0.930 0 0,1 32.210,54.020
" 
fill="none" vector-effect="non-scaling-stroke" stroke="#ffffff" stroke-width="0.200mm" fpd:visible="front" fpd:print_element="1" fpd:engraving="1" />
<path d="
M34.716 53.624
L34.716 52.283
L34.606 52.283
L34.606 53.624
L34.716 53.624
L34.804 53.690
L34.804 52.239
L34.518 52.239
L34.518 53.690
L34.804 53.690
L34.804 53.382
A0.518,0.518 0 0,0 35.683,53.580
A0.582,0.582 0 0,0 35.837,53.185
L35.837 52.239
L35.551 52.239
L35.551 53.185
A0.420,0.420 0 0,1 35.441,53.470
A0.357,0.357 0 0,1 34.914,53.470
A0.420,0.420 0 0,1 34.804,53.185
A0.430,0.430 0 0,0 35.024,53.602
A0.466,0.466 0 0,0 35.749,53.229
L35.749 52.283
L35.639 52.283
L35.639 53.229
A0.402,0.402 0 0,1 35.309,53.624
" 
fill="none" vector-effect="non-scaling-stroke" stroke="#ffffff" stroke-width="0.200mm" fpd:visible="front" fpd:print_element="1" fpd:engraving="1" />
<path d="
M32.089 16.500
A0.726,0.726 0 0,0 33.298,16.500
A1.014,1.014 0 0,0 33.298,15.292
A0.720,0.720 0 0,0 32.089,15.292
A1.014,1.014 0 0,0 32.089,16.500
L32.170 16.500
A1.100,1.100 0 0,1 32.170,15.292
A0.658,0.658 0 0,1 33.217,15.292
A1.100,1.100 0 0,1 33.217,16.500
A0.652,0.652 0 0,1 32.170,16.500
L32.150 16.319
A1.258,1.258 0 0,1 32.150,15.473
A0.579,0.579 0 0,1 33.237,15.473
A1.258,1.258 0 0,1 33.237,16.319
A0.579,0.579 0 0,1 32.150,16.319
L32.008 16.561
A1.115,1.115 0 0,1 32.008,15.231
A0.852,0.852 0 0,1 33.378,15.231
A1.115,1.115 0 0,1 33.378,16.561
A0.852,0.852 0 0,1 32.008,16.561
" 
fill="none" vector-effect="non-scaling-stroke" stroke="#ffffff" stroke-width="0.200mm" fpd:visible="front" fpd:print_element="1" fpd:engraving="1" />
<path d="
M34.144 16.218
L34.748 16.218
L34.809 16.299
L34.809 16.138
L34.104 16.138
L34.104 16.299
L34.809 16.299
L34.466 16.299
L34.466 16.480
L34.466 14.989
L34.366 14.989
L34.366 16.521
A0.281,0.281 0 0,0 34.648,16.803
L34.728 16.803
L34.728 16.722
A0.241,0.241 0 0,1 34.466,16.480
L34.547 16.480
L34.547 14.929
L34.285 14.929
L34.285 16.500
A0.361,0.361 0 0,0 34.648,16.863
L34.809 16.863
L34.809 16.662
L34.728 16.662
A0.180,0.180 0 0,1 34.547,16.480
" 
fill="none" vector-effect="non-scaling-stroke" stroke="#ffffff" stroke-width="0.200mm" fpd:visible="front" fpd:print_element="1" fpd:engraving="1" />
<path d="
M35.352 16.218
L35.956 16.218
L36.017 16.299
L36.017 16.138
L35.312 16.138
L35.312 16.299
L36.017 16.299
L35.674 16.299
L35.674 16.480
L35.674 14.989
L35.574 14.989
L35.574 16.521
A0.281,0.281 0 0,0 35.856,16.803
L35.936 16.803
L35.936 16.722
A0.241,0.241 0 0,1 35.674,16.480
L35.755 16.480
L35.755 14.929
L35.493 14.929
L35.493 16.500
A0.361,0.361 0 0,0 35.856,16.863
L36.017 16.863
L36.017 16.662
L35.936 16.662
A0.180,0.180 0 0,1 35.755,16.480
" 
fill="none" vector-effect="non-scaling-stroke" stroke="#ffffff" stroke-width="0.200mm" fpd:visible="front" fpd:print_element="1" fpd:engraving="1" />
<path d="
M68.674 58.246
L70.015 58.246
L70.015 58.158
L68.784 58.158
L68.784 57.213
L69.905 57.213
L69.905 57.300
L68.784 57.300
L68.784 56.245
L68.674 56.245
L68.674 58.202
L68.564 58.312
L68.564 56.201
L68.894 56.201
L68.894 57.147
L69.949 57.147
L69.949 57.366
L68.894 57.366
L68.894 58.092
L70.059 58.092
L70.059 58.312
L68.564 58.312
" 
fill="none" vector-effect="non-scaling-stroke" stroke="#ffffff" stroke-width="0.200mm" fpd:visible="front" fpd:print_element="1" fpd:engraving="1" />
<path d="
M72.325 57.783
L72.237 57.783
L72.127 57.959
A0.712,0.712 0 0,1 71.028,57.915
A1.201,1.201 0 0,1 71.028,56.596
A0.698,0.698 0 0,1 72.149,56.574
L72.303 56.838
L72.391 56.838
A1.098,1.098 0 0,0 72.259,56.596
A0.780,0.780 0 0,0 70.940,56.596
A1.106,1.106 0 0,0 70.940,57.915
A0.780,0.780 0 0,0 72.259,57.915
A0.895,0.895 0 0,0 72.347,57.805
L72.501 57.717
L72.193 57.717
A0.632,0.632 0 0,1 71.006,57.717
A1.373,1.373 0 0,1 71.006,56.794
A0.632,0.632 0 0,1 72.193,56.794
A1.440,1.440 0 0,1 72.215,56.882
L72.523 56.882
A1.257,1.257 0 0,0 72.347,56.530
A0.930,0.930 0 0,0 70.852,56.530
A1.217,1.217 0 0,0 70.852,57.981
A0.930,0.930 0 0,0 72.347,57.981
A1.217,1.217 0 0,0 72.501,57.717
" 
fill="none" vector-effect="non-scaling-stroke" stroke="#ffffff" stroke-width="0.200mm" fpd:visible="front" fpd:print_element="1" fpd:engraving="1" />
<path d="
M73.249 56.288
L73.249 58.157
L73.183 58.223
L73.535 58.223
L74.106 56.420
L74.194 56.420
L74.766 58.223
L75.118 58.223
L75.118 56.266
L75.074 56.266
L75.074 58.179
L75.030 58.179
L75.030 56.266
L74.986 56.266
L74.986 58.157
L74.832 58.157
L74.260 56.288
L74.040 56.288
L73.447 58.157
L73.293 58.157
L73.293 56.266
L73.183 56.266
L73.183 58.223
L73.095 58.311
L73.601 58.311
L74.150 56.574
L74.150 56.200
L74.084 56.354
L74.216 56.354
L74.150 56.574
L74.700 58.311
L75.206 58.311
L75.206 56.200
L74.920 56.200
L74.920 58.091
L74.304 56.200
L73.974 56.200
L73.381 58.091
L73.381 56.200
L73.095 56.200
L73.095 58.311
" 
fill="none" vector-effect="non-scaling-stroke" stroke="#ffffff" stroke-width="0.200mm" fpd:visible="front" fpd:print_element="1" fpd:engraving="1" />
<path d="
M77.756 57.761
L77.866 57.761
A0.377,0.377 0 0,0 77.976,58.025
A0.550,0.550 0 0,0 78.701,58.069
A0.502,0.502 0 0,0 78.701,57.277
L77.822 56.574
A0.404,0.404 0 0,1 77.712,56.288
L79.097 56.288
L79.097 56.354
L77.822 56.354
A0.175,0.175 0 0,0 77.888,56.530
L78.811 57.255
A0.536,0.536 0 0,1 78.877,58.025
A0.688,0.688 0 0,1 77.888,58.069
A0.426,0.426 0 0,1 77.756,57.761
L77.646 57.673
L77.954 57.673
A0.440,0.440 0 0,0 78.130,58.025
A0.417,0.417 0 0,0 78.679,57.981
A0.448,0.448 0 0,0 78.635,57.321
L77.822 56.706
A0.582,0.582 0 0,1 77.602,56.200
L79.163 56.200
L79.163 56.420
L77.932 56.420
A0.198,0.198 0 0,0 77.998,56.508
L78.811 57.146
A0.714,0.714 0 0,1 79.097,57.673
A0.587,0.587 0 0,1 78.789,58.223
A0.859,0.859 0 0,1 77.976,58.223
A0.626,0.626 0 0,1 77.646,57.673
" 
fill="none" vector-effect="non-scaling-stroke" stroke="#ffffff" stroke-width="0.200mm" fpd:visible="front" fpd:print_element="1" fpd:engraving="1" />
<path d="
M72.257 53.954
A0.793,0.793 0 0,0 73.576,53.954
A1.106,1.106 0 0,0 73.576,52.635
A0.786,0.786 0 0,0 72.257,52.635
A1.106,1.106 0 0,0 72.257,53.954
L72.345 53.954
A1.201,1.201 0 0,1 72.345,52.635
A0.718,0.718 0 0,1 73.488,52.635
A1.201,1.201 0 0,1 73.488,53.954
A0.711,0.711 0 0,1 72.345,53.954
L72.323 53.756
A1.373,1.373 0 0,1 72.323,52.833
A0.632,0.632 0 0,1 73.510,52.833
A1.373,1.373 0 0,1 73.510,53.756
A0.632,0.632 0 0,1 72.323,53.756
L72.169 54.020
A1.217,1.217 0 0,1 72.169,52.569
A0.930,0.930 0 0,1 73.664,52.569
A1.217,1.217 0 0,1 73.664,54.020
A0.930,0.930 0 0,1 72.169,54.020
" 
fill="none" vector-effect="non-scaling-stroke" stroke="#ffffff" stroke-width="0.200mm" fpd:visible="front" fpd:print_element="1" fpd:engraving="1" />
<path d="
M74.675 53.624
L74.675 52.283
L74.565 52.283
L74.565 53.624
L74.675 53.624
L74.763 53.690
L74.763 52.239
L74.477 52.239
L74.477 53.690
L74.763 53.690
L74.763 53.382
A0.518,0.518 0 0,0 75.642,53.580
A0.582,0.582 0 0,0 75.796,53.185
L75.796 52.239
L75.510 52.239
L75.510 53.185
A0.420,0.420 0 0,1 75.400,53.470
A0.357,0.357 0 0,1 74.873,53.470
A0.420,0.420 0 0,1 74.763,53.185
A0.430,0.430 0 0,0 74.983,53.602
A0.466,0.466 0 0,0 75.708,53.229
L75.708 52.283
L75.598 52.283
L75.598 53.229
A0.402,0.402 0 0,1 75.268,53.624
" 
fill="none" vector-effect="non-scaling-stroke" stroke="#ffffff" stroke-width="0.200mm" fpd:visible="front" fpd:print_element="1" fpd:engraving="1" />
<path d="
M72.048 16.500
A0.726,0.726 0 0,0 73.257,16.500
A1.014,1.014 0 0,0 73.257,15.292
A0.720,0.720 0 0,0 72.048,15.292
A1.014,1.014 0 0,0 72.048,16.500
L72.129 16.500
A1.100,1.100 0 0,1 72.129,15.292
A0.658,0.658 0 0,1 73.176,15.292
A1.100,1.100 0 0,1 73.176,16.500
A0.652,0.652 0 0,1 72.129,16.500
L72.109 16.319
A1.258,1.258 0 0,1 72.109,15.473
A0.579,0.579 0 0,1 73.196,15.473
A1.258,1.258 0 0,1 73.196,16.319
A0.579,0.579 0 0,1 72.109,16.319
L71.968 16.561
A1.115,1.115 0 0,1 71.968,15.231
A0.852,0.852 0 0,1 73.337,15.231
A1.115,1.115 0 0,1 73.337,16.561
A0.852,0.852 0 0,1 71.968,16.561
" 
fill="none" vector-effect="non-scaling-stroke" stroke="#ffffff" stroke-width="0.200mm" fpd:visible="front" fpd:print_element="1" fpd:engraving="1" />
<path d="
M74.103 16.218
L74.707 16.218
L74.768 16.299
L74.768 16.138
L74.063 16.138
L74.063 16.299
L74.768 16.299
L74.425 16.299
L74.425 16.480
L74.425 14.989
L74.325 14.989
L74.325 16.521
A0.281,0.281 0 0,0 74.607,16.803
L74.687 16.803
L74.687 16.722
A0.241,0.241 0 0,1 74.425,16.480
L74.506 16.480
L74.506 14.929
L74.244 14.929
L74.244 16.500
A0.361,0.361 0 0,0 74.607,16.863
L74.768 16.863
L74.768 16.662
L74.687 16.662
A0.180,0.180 0 0,1 74.506,16.480
" 
fill="none" vector-effect="non-scaling-stroke" stroke="#ffffff" stroke-width="0.200mm" fpd:visible="front" fpd:print_element="1" fpd:engraving="1" />
<path d="
M75.311 16.218
L75.915 16.218
L75.976 16.299
L75.976 16.138
L75.271 16.138
L75.271 16.299
L75.976 16.299
L75.633 16.299
L75.633 16.480
L75.633 14.989
L75.533 14.989
L75.533 16.521
A0.281,0.281 0 0,0 75.815,16.803
L75.895 16.803
L75.895 16.722
A0.241,0.241 0 0,1 75.633,16.480
L75.714 16.480
L75.714 14.929
L75.452 14.929
L75.452 16.500
A0.361,0.361 0 0,0 75.815,16.863
L75.976 16.863
L75.976 16.662
L75.895 16.662
A0.180,0.180 0 0,1 75.714,16.480
" 
fill="none" vector-effect="non-scaling-stroke" stroke="#ffffff" stroke-width="0.200mm" fpd:visible="front" fpd:print_element="1" fpd:engraving="1" />
<path d="
M108.374 58.246
L109.715 58.246
L109.715 58.158
L108.484 58.158
L108.484 57.213
L109.605 57.213
L109.605 57.300
L108.484 57.300
L108.484 56.245
L108.374 56.245
L108.374 58.202
L108.264 58.312
L108.264 56.201
L108.594 56.201
L108.594 57.147
L109.649 57.147
L109.649 57.366
L108.594 57.366
L108.594 58.092
L109.759 58.092
L109.759 58.312
L108.264 58.312
" 
fill="none" vector-effect="non-scaling-stroke" stroke="#ffffff" stroke-width="0.200mm" fpd:visible="front" fpd:print_element="1" fpd:engraving="1" />
<path d="
M112.025 57.783
L111.937 57.783
L111.827 57.959
A0.712,0.712 0 0,1 110.728,57.915
A1.201,1.201 0 0,1 110.728,56.596
A0.698,0.698 0 0,1 111.849,56.574
L112.003 56.838
L112.091 56.838
A1.098,1.098 0 0,0 111.959,56.596
A0.780,0.780 0 0,0 110.640,56.596
A1.106,1.106 0 0,0 110.640,57.915
A0.780,0.780 0 0,0 111.959,57.915
A0.895,0.895 0 0,0 112.047,57.805
L112.201 57.717
L111.893 57.717
A0.632,0.632 0 0,1 110.706,57.717
A1.373,1.373 0 0,1 110.706,56.794
A0.632,0.632 0 0,1 111.893,56.794
A1.440,1.440 0 0,1 111.915,56.882
L112.223 56.882
A1.257,1.257 0 0,0 112.047,56.530
A0.930,0.930 0 0,0 110.552,56.530
A1.217,1.217 0 0,0 110.552,57.981
A0.930,0.930 0 0,0 112.047,57.981
A1.217,1.217 0 0,0 112.201,57.717
" 
fill="none" vector-effect="non-scaling-stroke" stroke="#ffffff" stroke-width="0.200mm" fpd:visible="front" fpd:print_element="1" fpd:engraving="1" />
<path d="
M112.949 56.288
L112.949 58.157
L112.883 58.223
L113.235 58.223
L113.806 56.420
L113.894 56.420
L114.466 58.223
L114.818 58.223
L114.818 56.266
L114.774 56.266
L114.774 58.179
L114.730 58.179
L114.730 56.266
L114.686 56.266
L114.686 58.157
L114.532 58.157
L113.960 56.288
L113.740 56.288
L113.147 58.157
L112.993 58.157
L112.993 56.266
L112.883 56.266
L112.883 58.223
L112.795 58.311
L113.301 58.311
L113.850 56.574
L113.850 56.200
L113.784 56.354
L113.916 56.354
L113.850 56.574
L114.400 58.311
L114.906 58.311
L114.906 56.200
L114.620 56.200
L114.620 58.091
L114.004 56.200
L113.674 56.200
L113.081 58.091
L113.081 56.200
L112.795 56.200
L112.795 58.311
" 
fill="none" vector-effect="non-scaling-stroke" stroke="#ffffff" stroke-width="0.200mm" fpd:visible="front" fpd:print_element="1" fpd:engraving="1" />
<path d="
M117.544 57.805
A0.586,0.586 0 0,0 118.687,57.805
A0.443,0.443 0 0,0 118.247,57.299
A1.530,1.530 0 0,0 118.599,57.146
A0.420,0.420 0 0,0 118.753,56.552
A0.770,0.770 0 0,0 117.566,56.486
A0.531,0.531 0 0,0 117.434,56.750
L117.544 56.750
A0.628,0.628 0 0,1 118.665,56.596
A0.330,0.330 0 0,1 118.665,56.926
A0.611,0.611 0 0,1 118.115,57.255
L118.115 57.321
L118.379 57.387
A0.278,0.278 0 0,1 118.533,57.563
A0.461,0.461 0 0,1 118.225,58.179
A0.468,0.468 0 0,1 117.654,57.805
L117.544 57.805
L117.412 57.717
A0.639,0.639 0 0,0 117.544,58.047
A0.725,0.725 0 0,0 118.687,58.047
A0.519,0.519 0 0,0 118.753,57.519
A0.407,0.407 0 0,0 118.401,57.277
A0.642,0.642 0 0,0 118.775,57.102
A0.420,0.420 0 0,0 118.863,56.618
A0.720,0.720 0 0,0 118.379,56.222
A1.195,1.195 0 0,0 117.896,56.200
A0.704,0.704 0 0,0 117.302,56.838
L117.610 56.838
A0.363,0.363 0 0,1 117.742,56.530
A0.584,0.584 0 0,1 118.489,56.530
A0.328,0.328 0 0,1 118.489,57.014
A0.533,0.533 0 0,1 118.115,57.168
L118.028 57.168
L118.028 57.387
L118.115 57.387
A0.365,0.365 0 0,1 118.401,57.959
A0.367,0.367 0 0,1 117.830,58.003
A0.476,0.476 0 0,1 117.720,57.717
L117.412 57.717
" 
fill="none" vector-effect="non-scaling-stroke" stroke="#ffffff" stroke-width="0.200mm" fpd:visible="front" fpd:print_element="1" fpd:engraving="1" />
<path d="
M111.978 53.954
A0.793,0.793 0 0,0 113.297,53.954
A1.106,1.106 0 0,0 113.297,52.635
A0.786,0.786 0 0,0 111.978,52.635
A1.106,1.106 0 0,0 111.978,53.954
L112.066 53.954
A1.201,1.201 0 0,1 112.066,52.635
A0.718,0.718 0 0,1 113.209,52.635
A1.201,1.201 0 0,1 113.209,53.954
A0.711,0.711 0 0,1 112.066,53.954
L112.044 53.756
A1.373,1.373 0 0,1 112.044,52.833
A0.632,0.632 0 0,1 113.231,52.833
A1.373,1.373 0 0,1 113.231,53.756
A0.632,0.632 0 0,1 112.044,53.756
L111.890 54.020
A1.217,1.217 0 0,1 111.890,52.569
A0.930,0.930 0 0,1 113.385,52.569
A1.217,1.217 0 0,1 113.385,54.020
A0.930,0.930 0 0,1 111.890,54.020
" 
fill="none" vector-effect="non-scaling-stroke" stroke="#ffffff" stroke-width="0.200mm" fpd:visible="front" fpd:print_element="1" fpd:engraving="1" />
<path d="
M114.396 53.624
L114.396 52.283
L114.286 52.283
L114.286 53.624
L114.396 53.624
L114.484 53.690
L114.484 52.239
L114.198 52.239
L114.198 53.690
L114.484 53.690
L114.484 53.382
A0.518,0.518 0 0,0 115.363,53.580
A0.582,0.582 0 0,0 115.517,53.185
L115.517 52.239
L115.231 52.239
L115.231 53.185
A0.420,0.420 0 0,1 115.121,53.470
A0.357,0.357 0 0,1 114.594,53.470
A0.420,0.420 0 0,1 114.484,53.185
A0.430,0.430 0 0,0 114.704,53.602
A0.466,0.466 0 0,0 115.429,53.229
L115.429 52.283
L115.319 52.283
L115.319 53.229
A0.402,0.402 0 0,1 114.989,53.624
" 
fill="none" vector-effect="non-scaling-stroke" stroke="#ffffff" stroke-width="0.200mm" fpd:visible="front" fpd:print_element="1" fpd:engraving="1" />
<path d="
M111.769 16.500
A0.726,0.726 0 0,0 112.978,16.500
A1.014,1.014 0 0,0 112.978,15.292
A0.720,0.720 0 0,0 111.769,15.292
A1.014,1.014 0 0,0 111.769,16.500
L111.850 16.500
A1.100,1.100 0 0,1 111.850,15.292
A0.658,0.658 0 0,1 112.897,15.292
A1.100,1.100 0 0,1 112.897,16.500
A0.652,0.652 0 0,1 111.850,16.500
L111.830 16.319
A1.258,1.258 0 0,1 111.830,15.473
A0.579,0.579 0 0,1 112.917,15.473
A1.258,1.258 0 0,1 112.917,16.319
A0.579,0.579 0 0,1 111.830,16.319
L111.689 16.561
A1.115,1.115 0 0,1 111.689,15.231
A0.852,0.852 0 0,1 113.058,15.231
A1.115,1.115 0 0,1 113.058,16.561
A0.852,0.852 0 0,1 111.689,16.561
" 
fill="none" vector-effect="non-scaling-stroke" stroke="#ffffff" stroke-width="0.200mm" fpd:visible="front" fpd:print_element="1" fpd:engraving="1" />
<path d="
M113.824 16.218
L114.428 16.218
L114.489 16.299
L114.489 16.138
L113.784 16.138
L113.784 16.299
L114.489 16.299
L114.146 16.299
L114.146 16.480
L114.146 14.989
L114.046 14.989
L114.046 16.521
A0.281,0.281 0 0,0 114.328,16.803
L114.408 16.803
L114.408 16.722
A0.241,0.241 0 0,1 114.146,16.480
L114.227 16.480
L114.227 14.929
L113.965 14.929
L113.965 16.500
A0.361,0.361 0 0,0 114.328,16.863
L114.489 16.863
L114.489 16.662
L114.408 16.662
A0.180,0.180 0 0,1 114.227,16.480
" 
fill="none" vector-effect="non-scaling-stroke" stroke="#ffffff" stroke-width="0.200mm" fpd:visible="front" fpd:print_element="1" fpd:engraving="1" />
<path d="
M115.032 16.218
L115.636 16.218
L115.697 16.299
L115.697 16.138
L114.992 16.138
L114.992 16.299
L115.697 16.299
L115.354 16.299
L115.354 16.480
L115.354 14.989
L115.254 14.989
L115.254 16.521
A0.281,0.281 0 0,0 115.536,16.803
L115.616 16.803
L115.616 16.722
A0.241,0.241 0 0,1 115.354,16.480
L115.435 16.480
L115.435 14.929
L115.173 14.929
L115.173 16.500
A0.361,0.361 0 0,0 115.536,16.863
L115.697 16.863
L115.697 16.662
L115.616 16.662
A0.180,0.180 0 0,1 115.435,16.480
" 
fill="none" vector-effect="non-scaling-stroke" stroke="#ffffff" stroke-width="0.200mm" fpd:visible="front" fpd:print_element="1" fpd:engraving="1" />
<path d="
M148.291 58.246
L149.632 58.246
L149.632 58.158
L148.401 58.158
L148.401 57.213
L149.522 57.213
L149.522 57.300
L148.401 57.300
L148.401 56.245
L148.291 56.245
L148.291 58.202
L148.181 58.312
L148.181 56.201
L148.511 56.201
L148.511 57.147
L149.566 57.147
L149.566 57.366
L148.511 57.366
L148.511 58.092
L149.676 58.092
L149.676 58.312
L148.181 58.312
" 
fill="none" vector-effect="non-scaling-stroke" stroke="#ffffff" stroke-width="0.200mm" fpd:visible="front" fpd:print_element="1" fpd:engraving="1" />
<path d="
M151.942 57.783
L151.854 57.783
L151.744 57.959
A0.712,0.712 0 0,1 150.645,57.915
A1.201,1.201 0 0,1 150.645,56.596
A0.698,0.698 0 0,1 151.766,56.574
L151.920 56.838
L152.008 56.838
A1.098,1.098 0 0,0 151.876,56.596
A0.780,0.780 0 0,0 150.557,56.596
A1.106,1.106 0 0,0 150.557,57.915
A0.780,0.780 0 0,0 151.876,57.915
A0.895,0.895 0 0,0 151.964,57.805
L152.118 57.717
L151.810 57.717
A0.632,0.632 0 0,1 150.623,57.717
A1.373,1.373 0 0,1 150.623,56.794
A0.632,0.632 0 0,1 151.810,56.794
A1.440,1.440 0 0,1 151.832,56.882
L152.140 56.882
A1.257,1.257 0 0,0 151.964,56.530
A0.930,0.930 0 0,0 150.469,56.530
A1.217,1.217 0 0,0 150.469,57.981
A0.930,0.930 0 0,0 151.964,57.981
A1.217,1.217 0 0,0 152.118,57.717
" 
fill="none" vector-effect="non-scaling-stroke" stroke="#ffffff" stroke-width="0.200mm" fpd:visible="front" fpd:print_element="1" fpd:engraving="1" />
<path d="
M152.866 56.288
L152.866 58.157
L152.800 58.223
L153.152 58.223
L153.723 56.420
L153.811 56.420
L154.383 58.223
L154.735 58.223
L154.735 56.266
L154.691 56.266
L154.691 58.179
L154.647 58.179
L154.647 56.266
L154.603 56.266
L154.603 58.157
L154.449 58.157
L153.877 56.288
L153.657 56.288
L153.064 58.157
L152.910 58.157
L152.910 56.266
L152.800 56.266
L152.800 58.223
L152.712 58.311
L153.218 58.311
L153.767 56.574
L153.767 56.200
L153.701 56.354
L153.833 56.354
L153.767 56.574
L154.317 58.311
L154.823 58.311
L154.823 56.200
L154.537 56.200
L154.537 58.091
L153.921 56.200
L153.591 56.200
L152.998 58.091
L152.998 56.200
L152.712 56.200
L152.712 58.311
" 
fill="none" vector-effect="non-scaling-stroke" stroke="#ffffff" stroke-width="0.200mm" fpd:visible="front" fpd:print_element="1" fpd:engraving="1" />
<path d="
M158.318 58.025
L158.318 56.244
L158.428 56.244
L158.428 58.201
L158.274 58.201
L157.307 56.926
L157.307 56.750
L158.802 56.750
L158.538 56.640
L158.868 56.640
L158.868 56.860
L157.439 56.860
L158.208 57.915
L158.208 56.200
L158.538 56.200
L158.538 58.311
L158.208 58.311
L157.219 56.992
L157.219 56.640
L158.208 56.640
" 
fill="none" vector-effect="non-scaling-stroke" stroke="#ffffff" stroke-width="0.200mm" fpd:visible="front" fpd:print_element="1" fpd:engraving="1" />
<path d="
M151.918 53.954
A0.793,0.793 0 0,0 153.237,53.954
A1.106,1.106 0 0,0 153.237,52.635
A0.786,0.786 0 0,0 151.918,52.635
A1.106,1.106 0 0,0 151.918,53.954
L152.006 53.954
A1.201,1.201 0 0,1 152.006,52.635
A0.718,0.718 0 0,1 153.149,52.635
A1.201,1.201 0 0,1 153.149,53.954
A0.711,0.711 0 0,1 152.006,53.954
L151.984 53.756
A1.373,1.373 0 0,1 151.984,52.833
A0.632,0.632 0 0,1 153.171,52.833
A1.373,1.373 0 0,1 153.171,53.756
A0.632,0.632 0 0,1 151.984,53.756
L151.830 54.020
A1.217,1.217 0 0,1 151.830,52.569
A0.930,0.930 0 0,1 153.325,52.569
A1.217,1.217 0 0,1 153.325,54.020
A0.930,0.930 0 0,1 151.830,54.020
" 
fill="none" vector-effect="non-scaling-stroke" stroke="#ffffff" stroke-width="0.200mm" fpd:visible="front" fpd:print_element="1" fpd:engraving="1" />
<path d="
M154.336 53.624
L154.336 52.283
L154.226 52.283
L154.226 53.624
L154.336 53.624
L154.424 53.690
L154.424 52.239
L154.138 52.239
L154.138 53.690
L154.424 53.690
L154.424 53.382
A0.518,0.518 0 0,0 155.303,53.580
A0.582,0.582 0 0,0 155.457,53.185
L155.457 52.239
L155.171 52.239
L155.171 53.185
A0.420,0.420 0 0,1 155.061,53.470
A0.357,0.357 0 0,1 154.534,53.470
A0.420,0.420 0 0,1 154.424,53.185
A0.430,0.430 0 0,0 154.644,53.602
A0.466,0.466 0 0,0 155.369,53.229
L155.369 52.283
L155.259 52.283
L155.259 53.229
A0.402,0.402 0 0,1 154.929,53.624
" 
fill="none" vector-effect="non-scaling-stroke" stroke="#ffffff" stroke-width="0.200mm" fpd:visible="front" fpd:print_element="1" fpd:engraving="1" />
<path d="
M151.709 16.500
A0.726,0.726 0 0,0 152.918,16.500
A1.014,1.014 0 0,0 152.918,15.292
A0.720,0.720 0 0,0 151.709,15.292
A1.014,1.014 0 0,0 151.709,16.500
L151.790 16.500
A1.100,1.100 0 0,1 151.790,15.292
A0.658,0.658 0 0,1 152.837,15.292
A1.100,1.100 0 0,1 152.837,16.500
A0.652,0.652 0 0,1 151.790,16.500
L151.770 16.319
A1.258,1.258 0 0,1 151.770,15.473
A0.579,0.579 0 0,1 152.857,15.473
A1.258,1.258 0 0,1 152.857,16.319
A0.579,0.579 0 0,1 151.770,16.319
L151.629 16.561
A1.115,1.115 0 0,1 151.629,15.231
A0.852,0.852 0 0,1 152.998,15.231
A1.115,1.115 0 0,1 152.998,16.561
A0.852,0.852 0 0,1 151.629,16.561
" 
fill="none" vector-effect="non-scaling-stroke" stroke="#ffffff" stroke-width="0.200mm" fpd:visible="front" fpd:print_element="1" fpd:engraving="1" />
<path d="
M153.764 16.218
L154.368 16.218
L154.429 16.299
L154.429 16.138
L153.724 16.138
L153.724 16.299
L154.429 16.299
L154.086 16.299
L154.086 16.480
L154.086 14.989
L153.986 14.989
L153.986 16.521
A0.281,0.281 0 0,0 154.268,16.803
L154.348 16.803
L154.348 16.722
A0.241,0.241 0 0,1 154.086,16.480
L154.167 16.480
L154.167 14.929
L153.905 14.929
L153.905 16.500
A0.361,0.361 0 0,0 154.268,16.863
L154.429 16.863
L154.429 16.662
L154.348 16.662
A0.180,0.180 0 0,1 154.167,16.480
" 
fill="none" vector-effect="non-scaling-stroke" stroke="#ffffff" stroke-width="0.200mm" fpd:visible="front" fpd:print_element="1" fpd:engraving="1" />
<path d="
M154.972 16.218
L155.576 16.218
L155.637 16.299
L155.637 16.138
L154.932 16.138
L154.932 16.299
L155.637 16.299
L155.294 16.299
L155.294 16.480
L155.294 14.989
L155.194 14.989
L155.194 16.521
A0.281,0.281 0 0,0 155.476,16.803
L155.556 16.803
L155.556 16.722
A0.241,0.241 0 0,1 155.294,16.480
L155.375 16.480
L155.375 14.929
L155.113 14.929
L155.113 16.500
A0.361,0.361 0 0,0 155.476,16.863
L155.637 16.863
L155.637 16.662
L155.556 16.662
A0.180,0.180 0 0,1 155.375,16.480
" 
fill="none" vector-effect="non-scaling-stroke" stroke="#ffffff" stroke-width="0.200mm" fpd:visible="front" fpd:print_element="1" fpd:engraving="1" />
<path d="
M13.935 40.057
L14.600 38.223
L14.701 38.223
L14.016 40.057
L13.935 40.057
L13.250 38.223
L13.150 38.223
L13.835 40.057
L14.520 38.163
L14.822 38.163
L14.096 40.097
L13.754 40.097
L13.029 38.163
L13.331 38.163
L13.915 39.775
L13.553 38.808
L14.298 38.808
L14.318 38.747
L13.512 38.747
L13.492 38.667
L14.358 38.667
L14.358 38.606
L13.492 38.606
" 
fill="none" vector-effect="non-scaling-stroke" stroke="#ffffff" stroke-width="0.200mm" fpd:visible="front" fpd:print_element="1" fpd:engraving="1" />
<path d="
M13.945 35.175
A0.356,0.356 0 0,0 13.502,35.538
L13.502 36.384
L13.401 36.384
L13.401 35.538
A0.432,0.432 0 0,1 14.167,35.276
A1.778,1.778 0 0,1 14.348,35.558
L14.348 35.155
L14.449 35.155
L14.449 36.364
L14.348 36.364
L14.348 35.155
L14.268 35.115
L14.268 35.397
A0.475,0.475 0 0,0 13.462,35.216
A0.533,0.533 0 0,0 13.321,35.578
L13.321 36.424
L13.583 36.424
L13.583 35.578
A0.384,0.384 0 0,1 13.684,35.316
A0.327,0.327 0 0,1 14.167,35.316
A0.384,0.384 0 0,1 14.268,35.578
L14.268 36.424
L14.530 36.424
L14.530 35.115
L14.268 35.115
" 
fill="none" vector-effect="non-scaling-stroke" stroke="#ffffff" stroke-width="0.200mm" fpd:visible="front" fpd:print_element="1" fpd:engraving="1" />
<path d="
M13.835 33.941
L13.935 33.941
L13.935 32.450
A0.241,0.241 0 0,1 14.197,32.208
L14.197 32.127
L14.117 32.127
A0.281,0.281 0 0,0 13.835,32.409
L13.835 33.941
L13.754 34.001
L14.016 34.001
L14.016 32.450
A0.180,0.180 0 0,1 14.197,32.268
L14.278 32.268
L14.278 32.067
L14.117 32.067
A0.361,0.361 0 0,0 13.754,32.430
L13.754 34.001
" 
fill="none" vector-effect="non-scaling-stroke" stroke="#ffffff" stroke-width="0.200mm" fpd:visible="front" fpd:print_element="1" fpd:engraving="1" />
<path d="
M13.613 33.316
L14.217 33.316
L14.278 33.397
L14.278 33.235
L13.573 33.235
L13.573 33.397
L14.278 33.397
" 
fill="none" vector-effect="non-scaling-stroke" stroke="#ffffff" stroke-width="0.200mm" fpd:visible="front" fpd:print_element="1" fpd:engraving="1" />
<path d="
M13.603 30.187
A0.694,0.694 0 0,1 13.603,29.241
A0.460,0.460 0 0,1 14.247,29.241
A0.694,0.694 0 0,1 14.247,30.187
A0.495,0.495 0 0,1 13.603,30.187
L13.401 30.006
A0.675,0.675 0 0,1 13.401,29.402
A0.567,0.567 0 0,1 14.449,29.402
A0.675,0.675 0 0,1 14.449,30.006
A0.575,0.575 0 0,1 13.401,30.006
L13.341 30.067
A0.672,0.672 0 0,0 14.509,30.067
A0.745,0.745 0 0,0 14.509,29.341
A0.672,0.672 0 0,0 13.341,29.341
A0.745,0.745 0 0,0 13.341,30.067
L13.542 29.966
A0.400,0.400 0 0,0 14.308,29.966
A0.895,0.895 0 0,0 14.308,29.442
A0.400,0.400 0 0,0 13.542,29.442
A0.895,0.895 0 0,0 13.542,29.966
" 
fill="none" vector-effect="non-scaling-stroke" stroke="#ffffff" stroke-width="0.200mm" fpd:visible="front" fpd:print_element="1" fpd:engraving="1" />
<path d="
M53.895 40.057
L54.560 38.223
L54.661 38.223
L53.976 40.057
L53.895 40.057
L53.210 38.223
L53.110 38.223
L53.795 40.057
L54.480 38.163
L54.782 38.163
L54.056 40.097
L53.714 40.097
L52.989 38.163
L53.291 38.163
L53.875 39.775
L53.513 38.808
L54.258 38.808
L54.278 38.747
L53.472 38.747
L53.452 38.667
L54.318 38.667
L54.318 38.606
L53.452 38.606
" 
fill="none" vector-effect="non-scaling-stroke" stroke="#ffffff" stroke-width="0.200mm" fpd:visible="front" fpd:print_element="1" fpd:engraving="1" />
<path d="
M53.905 35.175
A0.356,0.356 0 0,0 53.462,35.538
L53.462 36.384
L53.361 36.384
L53.361 35.538
A0.432,0.432 0 0,1 54.127,35.276
A1.778,1.778 0 0,1 54.308,35.558
L54.308 35.155
L54.409 35.155
L54.409 36.364
L54.308 36.364
L54.308 35.155
L54.228 35.115
L54.228 35.397
A0.475,0.475 0 0,0 53.422,35.216
A0.533,0.533 0 0,0 53.281,35.578
L53.281 36.424
L53.543 36.424
L53.543 35.578
A0.384,0.384 0 0,1 53.644,35.316
A0.327,0.327 0 0,1 54.127,35.316
A0.384,0.384 0 0,1 54.228,35.578
L54.228 36.424
L54.490 36.424
L54.490 35.115
L54.228 35.115
" 
fill="none" vector-effect="non-scaling-stroke" stroke="#ffffff" stroke-width="0.200mm" fpd:visible="front" fpd:print_element="1" fpd:engraving="1" />
<path d="
M53.795 33.941
L53.895 33.941
L53.895 32.450
A0.241,0.241 0 0,1 54.157,32.208
L54.157 32.127
L54.077 32.127
A0.281,0.281 0 0,0 53.795,32.409
L53.795 33.941
L53.714 34.001
L53.976 34.001
L53.976 32.450
A0.180,0.180 0 0,1 54.157,32.268
L54.238 32.268
L54.238 32.067
L54.077 32.067
A0.361,0.361 0 0,0 53.714,32.430
L53.714 34.001
" 
fill="none" vector-effect="non-scaling-stroke" stroke="#ffffff" stroke-width="0.200mm" fpd:visible="front" fpd:print_element="1" fpd:engraving="1" />
<path d="
M53.573 33.316
L54.177 33.316
L54.238 33.397
L54.238 33.235
L53.533 33.235
L53.533 33.397
L54.238 33.397
" 
fill="none" vector-effect="non-scaling-stroke" stroke="#ffffff" stroke-width="0.200mm" fpd:visible="front" fpd:print_element="1" fpd:engraving="1" />
<path d="
M53.563 30.187
A0.694,0.694 0 0,1 53.563,29.241
A0.460,0.460 0 0,1 54.207,29.241
A0.694,0.694 0 0,1 54.207,30.187
A0.495,0.495 0 0,1 53.563,30.187
L53.361 30.006
A0.675,0.675 0 0,1 53.361,29.402
A0.567,0.567 0 0,1 54.409,29.402
A0.675,0.675 0 0,1 54.409,30.006
A0.575,0.575 0 0,1 53.361,30.006
L53.301 30.067
A0.672,0.672 0 0,0 54.469,30.067
A0.745,0.745 0 0,0 54.469,29.341
A0.672,0.672 0 0,0 53.301,29.341
A0.745,0.745 0 0,0 53.301,30.067
L53.502 29.966
A0.400,0.400 0 0,0 54.268,29.966
A0.895,0.895 0 0,0 54.268,29.442
A0.400,0.400 0 0,0 53.502,29.442
A0.895,0.895 0 0,0 53.502,29.966
" 
fill="none" vector-effect="non-scaling-stroke" stroke="#ffffff" stroke-width="0.200mm" fpd:visible="front" fpd:print_element="1" fpd:engraving="1" />
<path d="
M93.854 40.057
L94.519 38.223
L94.620 38.223
L93.935 40.057
L93.854 40.057
L93.169 38.223
L93.069 38.223
L93.754 40.057
L94.439 38.163
L94.741 38.163
L94.015 40.097
L93.673 40.097
L92.948 38.163
L93.250 38.163
L93.834 39.775
L93.472 38.808
L94.217 38.808
L94.237 38.747
L93.431 38.747
L93.411 38.667
L94.277 38.667
L94.277 38.606
L93.411 38.606
" 
fill="none" vector-effect="non-scaling-stroke" stroke="#ffffff" stroke-width="0.200mm" fpd:visible="front" fpd:print_element="1" fpd:engraving="1" />
<path d="
M93.864 35.175
A0.356,0.356 0 0,0 93.421,35.538
L93.421 36.384
L93.320 36.384
L93.320 35.538
A0.432,0.432 0 0,1 94.086,35.276
A1.778,1.778 0 0,1 94.267,35.558
L94.267 35.155
L94.368 35.155
L94.368 36.364
L94.267 36.364
L94.267 35.155
L94.187 35.115
L94.187 35.397
A0.475,0.475 0 0,0 93.381,35.216
A0.533,0.533 0 0,0 93.240,35.578
L93.240 36.424
L93.502 36.424
L93.502 35.578
A0.384,0.384 0 0,1 93.603,35.316
A0.327,0.327 0 0,1 94.086,35.316
A0.384,0.384 0 0,1 94.187,35.578
L94.187 36.424
L94.449 36.424
L94.449 35.115
L94.187 35.115
" 
fill="none" vector-effect="non-scaling-stroke" stroke="#ffffff" stroke-width="0.200mm" fpd:visible="front" fpd:print_element="1" fpd:engraving="1" />
<path d="
M93.754 33.941
L93.854 33.941
L93.854 32.450
A0.241,0.241 0 0,1 94.116,32.208
L94.116 32.127
L94.036 32.127
A0.281,0.281 0 0,0 93.754,32.409
L93.754 33.941
L93.673 34.001
L93.935 34.001
L93.935 32.450
A0.180,0.180 0 0,1 94.116,32.268
L94.197 32.268
L94.197 32.067
L94.036 32.067
A0.361,0.361 0 0,0 93.673,32.430
L93.673 34.001
" 
fill="none" vector-effect="non-scaling-stroke" stroke="#ffffff" stroke-width="0.200mm" fpd:visible="front" fpd:print_element="1" fpd:engraving="1" />
<path d="
M93.532 33.316
L94.136 33.316
L94.197 33.397
L94.197 33.235
L93.492 33.235
L93.492 33.397
L94.197 33.397
" 
fill="none" vector-effect="non-scaling-stroke" stroke="#ffffff" stroke-width="0.200mm" fpd:visible="front" fpd:print_element="1" fpd:engraving="1" />
<path d="
M93.522 30.187
A0.694,0.694 0 0,1 93.522,29.241
A0.460,0.460 0 0,1 94.166,29.241
A0.694,0.694 0 0,1 94.166,30.187
A0.495,0.495 0 0,1 93.522,30.187
L93.320 30.006
A0.675,0.675 0 0,1 93.320,29.402
A0.567,0.567 0 0,1 94.368,29.402
A0.675,0.675 0 0,1 94.368,30.006
A0.575,0.575 0 0,1 93.320,30.006
L93.260 30.067
A0.672,0.672 0 0,0 94.428,30.067
A0.745,0.745 0 0,0 94.428,29.341
A0.672,0.672 0 0,0 93.260,29.341
A0.745,0.745 0 0,0 93.260,30.067
L93.461 29.966
A0.400,0.400 0 0,0 94.227,29.966
A0.895,0.895 0 0,0 94.227,29.442
A0.400,0.400 0 0,0 93.461,29.442
A0.895,0.895 0 0,0 93.461,29.966
" 
fill="none" vector-effect="non-scaling-stroke" stroke="#ffffff" stroke-width="0.200mm" fpd:visible="front" fpd:print_element="1" fpd:engraving="1" />
<path d="
M133.574 40.057
L134.239 38.223
L134.340 38.223
L133.655 40.057
L133.574 40.057
L132.889 38.223
L132.789 38.223
L133.474 40.057
L134.159 38.163
L134.461 38.163
L133.735 40.097
L133.393 40.097
L132.668 38.163
L132.970 38.163
L133.554 39.775
L133.192 38.808
L133.937 38.808
L133.957 38.747
L133.151 38.747
L133.131 38.667
L133.997 38.667
L133.997 38.606
L133.131 38.606
" 
fill="none" vector-effect="non-scaling-stroke" stroke="#ffffff" stroke-width="0.200mm" fpd:visible="front" fpd:print_element="1" fpd:engraving="1" />
<path d="
M133.584 35.175
A0.356,0.356 0 0,0 133.141,35.538
L133.141 36.384
L133.040 36.384
L133.040 35.538
A0.432,0.432 0 0,1 133.806,35.276
A1.778,1.778 0 0,1 133.987,35.558
L133.987 35.155
L134.088 35.155
L134.088 36.364
L133.987 36.364
L133.987 35.155
L133.907 35.115
L133.907 35.397
A0.475,0.475 0 0,0 133.101,35.216
A0.533,0.533 0 0,0 132.960,35.578
L132.960 36.424
L133.222 36.424
L133.222 35.578
A0.384,0.384 0 0,1 133.323,35.316
A0.327,0.327 0 0,1 133.806,35.316
A0.384,0.384 0 0,1 133.907,35.578
L133.907 36.424
L134.169 36.424
L134.169 35.115
L133.907 35.115
" 
fill="none" vector-effect="non-scaling-stroke" stroke="#ffffff" stroke-width="0.200mm" fpd:visible="front" fpd:print_element="1" fpd:engraving="1" />
<path d="
M133.474 33.941
L133.574 33.941
L133.574 32.450
A0.241,0.241 0 0,1 133.836,32.208
L133.836 32.127
L133.756 32.127
A0.281,0.281 0 0,0 133.474,32.409
L133.474 33.941
L133.393 34.001
L133.655 34.001
L133.655 32.450
A0.180,0.180 0 0,1 133.836,32.268
L133.917 32.268
L133.917 32.067
L133.756 32.067
A0.361,0.361 0 0,0 133.393,32.430
L133.393 34.001
" 
fill="none" vector-effect="non-scaling-stroke" stroke="#ffffff" stroke-width="0.200mm" fpd:visible="front" fpd:print_element="1" fpd:engraving="1" />
<path d="
M133.252 33.316
L133.856 33.316
L133.917 33.397
L133.917 33.235
L133.212 33.235
L133.212 33.397
L133.917 33.397
" 
fill="none" vector-effect="non-scaling-stroke" stroke="#ffffff" stroke-width="0.200mm" fpd:visible="front" fpd:print_element="1" fpd:engraving="1" />
<path d="
M133.242 30.187
A0.694,0.694 0 0,1 133.242,29.241
A0.460,0.460 0 0,1 133.886,29.241
A0.694,0.694 0 0,1 133.886,30.187
A0.495,0.495 0 0,1 133.242,30.187
L133.040 30.006
A0.675,0.675 0 0,1 133.040,29.402
A0.567,0.567 0 0,1 134.088,29.402
A0.675,0.675 0 0,1 134.088,30.006
A0.575,0.575 0 0,1 133.040,30.006
L132.980 30.067
A0.672,0.672 0 0,0 134.148,30.067
A0.745,0.745 0 0,0 134.148,29.341
A0.672,0.672 0 0,0 132.980,29.341
A0.745,0.745 0 0,0 132.980,30.067
L133.181 29.966
A0.400,0.400 0 0,0 133.947,29.966
A0.895,0.895 0 0,0 133.947,29.442
A0.400,0.400 0 0,0 133.181,29.442
A0.895,0.895 0 0,0 133.181,29.966
" 
fill="none" vector-effect="non-scaling-stroke" stroke="#ffffff" stroke-width="0.200mm" fpd:visible="front" fpd:print_element="1" fpd:engraving="1" />
<path d="
M173.513 40.057
L174.178 38.223
L174.279 38.223
L173.594 40.057
L173.513 40.057
L172.828 38.223
L172.728 38.223
L173.413 40.057
L174.098 38.163
L174.400 38.163
L173.674 40.097
L173.332 40.097
L172.607 38.163
L172.909 38.163
L173.493 39.775
L173.131 38.808
L173.876 38.808
L173.896 38.747
L173.090 38.747
L173.070 38.667
L173.936 38.667
L173.936 38.606
L173.070 38.606
" 
fill="none" vector-effect="non-scaling-stroke" stroke="#ffffff" stroke-width="0.200mm" fpd:visible="front" fpd:print_element="1" fpd:engraving="1" />
<path d="
M173.523 35.175
A0.356,0.356 0 0,0 173.080,35.538
L173.080 36.384
L172.979 36.384
L172.979 35.538
A0.432,0.432 0 0,1 173.745,35.276
A1.778,1.778 0 0,1 173.926,35.558
L173.926 35.155
L174.027 35.155
L174.027 36.364
L173.926 36.364
L173.926 35.155
L173.846 35.115
L173.846 35.397
A0.475,0.475 0 0,0 173.040,35.216
A0.533,0.533 0 0,0 172.899,35.578
L172.899 36.424
L173.161 36.424
L173.161 35.578
A0.384,0.384 0 0,1 173.262,35.316
A0.327,0.327 0 0,1 173.745,35.316
A0.384,0.384 0 0,1 173.846,35.578
L173.846 36.424
L174.108 36.424
L174.108 35.115
L173.846 35.115
" 
fill="none" vector-effect="non-scaling-stroke" stroke="#ffffff" stroke-width="0.200mm" fpd:visible="front" fpd:print_element="1" fpd:engraving="1" />
<path d="
M173.413 33.941
L173.513 33.941
L173.513 32.450
A0.241,0.241 0 0,1 173.775,32.208
L173.775 32.127
L173.695 32.127
A0.281,0.281 0 0,0 173.413,32.409
L173.413 33.941
L173.332 34.001
L173.594 34.001
L173.594 32.450
A0.180,0.180 0 0,1 173.775,32.268
L173.856 32.268
L173.856 32.067
L173.695 32.067
A0.361,0.361 0 0,0 173.332,32.430
L173.332 34.001
" 
fill="none" vector-effect="non-scaling-stroke" stroke="#ffffff" stroke-width="0.200mm" fpd:visible="front" fpd:print_element="1" fpd:engraving="1" />
<path d="
M173.191 33.316
L173.795 33.316
L173.856 33.397
L173.856 33.235
L173.151 33.235
L173.151 33.397
L173.856 33.397
" 
fill="none" vector-effect="non-scaling-stroke" stroke="#ffffff" stroke-width="0.200mm" fpd:visible="front" fpd:print_element="1" fpd:engraving="1" />
<path d="
M173.181 30.187
A0.694,0.694 0 0,1 173.181,29.241
A0.460,0.460 0 0,1 173.825,29.241
A0.694,0.694 0 0,1 173.825,30.187
A0.495,0.495 0 0,1 173.181,30.187
L172.979 30.006
A0.675,0.675 0 0,1 172.979,29.402
A0.567,0.567 0 0,1 174.027,29.402
A0.675,0.675 0 0,1 174.027,30.006
A0.575,0.575 0 0,1 172.979,30.006
L172.919 30.067
A0.672,0.672 0 0,0 174.087,30.067
A0.745,0.745 0 0,0 174.087,29.341
A0.672,0.672 0 0,0 172.919,29.341
A0.745,0.745 0 0,0 172.919,30.067
L173.120 29.966
A0.400,0.400 0 0,0 173.886,29.966
A0.895,0.895 0 0,0 173.886,29.442
A0.400,0.400 0 0,0 173.120,29.442
A0.895,0.895 0 0,0 173.120,29.966
" 
fill="none" vector-effect="non-scaling-stroke" stroke="#ffffff" stroke-width="0.200mm" fpd:visible="front" fpd:print_element="1" fpd:engraving="1" />
<path d="
M213.361 40.057
L214.026 38.223
L214.127 38.223
L213.442 40.057
L213.361 40.057
L212.676 38.223
L212.576 38.223
L213.261 40.057
L213.946 38.163
L214.248 38.163
L213.522 40.097
L213.180 40.097
L212.455 38.163
L212.757 38.163
L213.341 39.775
L212.979 38.808
L213.724 38.808
L213.744 38.747
L212.938 38.747
L212.918 38.667
L213.784 38.667
L213.784 38.606
L212.918 38.606
" 
fill="none" vector-effect="non-scaling-stroke" stroke="#ffffff" stroke-width="0.200mm" fpd:visible="front" fpd:print_element="1" fpd:engraving="1" />
<path d="
M213.371 35.175
A0.356,0.356 0 0,0 212.928,35.538
L212.928 36.384
L212.827 36.384
L212.827 35.538
A0.432,0.432 0 0,1 213.593,35.276
A1.778,1.778 0 0,1 213.774,35.558
L213.774 35.155
L213.875 35.155
L213.875 36.364
L213.774 36.364
L213.774 35.155
L213.694 35.115
L213.694 35.397
A0.475,0.475 0 0,0 212.888,35.216
A0.533,0.533 0 0,0 212.747,35.578
L212.747 36.424
L213.009 36.424
L213.009 35.578
A0.384,0.384 0 0,1 213.110,35.316
A0.327,0.327 0 0,1 213.593,35.316
A0.384,0.384 0 0,1 213.694,35.578
L213.694 36.424
L213.956 36.424
L213.956 35.115
L213.694 35.115
" 
fill="none" vector-effect="non-scaling-stroke" stroke="#ffffff" stroke-width="0.200mm" fpd:visible="front" fpd:print_element="1" fpd:engraving="1" />
<path d="
M213.261 33.941
L213.361 33.941
L213.361 32.450
A0.241,0.241 0 0,1 213.623,32.208
L213.623 32.127
L213.543 32.127
A0.281,0.281 0 0,0 213.261,32.409
L213.261 33.941
L213.180 34.001
L213.442 34.001
L213.442 32.450
A0.180,0.180 0 0,1 213.623,32.268
L213.704 32.268
L213.704 32.067
L213.543 32.067
A0.361,0.361 0 0,0 213.180,32.430
L213.180 34.001
" 
fill="none" vector-effect="non-scaling-stroke" stroke="#ffffff" stroke-width="0.200mm" fpd:visible="front" fpd:print_element="1" fpd:engraving="1" />
<path d="
M213.039 33.316
L213.643 33.316
L213.704 33.397
L213.704 33.235
L212.999 33.235
L212.999 33.397
L213.704 33.397
" 
fill="none" vector-effect="non-scaling-stroke" stroke="#ffffff" stroke-width="0.200mm" fpd:visible="front" fpd:print_element="1" fpd:engraving="1" />
<path d="
M213.029 30.187
A0.694,0.694 0 0,1 213.029,29.241
A0.460,0.460 0 0,1 213.673,29.241
A0.694,0.694 0 0,1 213.673,30.187
A0.495,0.495 0 0,1 213.029,30.187
L212.827 30.006
A0.675,0.675 0 0,1 212.827,29.402
A0.567,0.567 0 0,1 213.875,29.402
A0.675,0.675 0 0,1 213.875,30.006
A0.575,0.575 0 0,1 212.827,30.006
L212.767 30.067
A0.672,0.672 0 0,0 213.935,30.067
A0.745,0.745 0 0,0 213.935,29.341
A0.672,0.672 0 0,0 212.767,29.341
A0.745,0.745 0 0,0 212.767,30.067
L212.968 29.966
A0.400,0.400 0 0,0 213.734,29.966
A0.895,0.895 0 0,0 213.734,29.442
A0.400,0.400 0 0,0 212.968,29.442
A0.895,0.895 0 0,0 212.968,29.966
" 
fill="none" vector-effect="non-scaling-stroke" stroke="#ffffff" stroke-width="0.200mm" fpd:visible="front" fpd:print_element="1" fpd:engraving="1" />
<path d="
M173.503 58.725
L173.503 43.485
" 
fill="none" vector-effect="non-scaling-stroke" stroke="#ffffff" stroke-width="0.635mm" fpd:visible="front" fpd:print_element="1" fpd:engraving="1" />
<path d="
M173.503 25.453
L173.503 10.213
" 
fill="none" vector-effect="non-scaling-stroke" stroke="#ffffff" stroke-width="0.635mm" fpd:visible="front" fpd:print_element="1" fpd:engraving="1" />
<path d="
M3.569 6.350
A2.781,2.781 0 1,0 9.131,6.350
A2.781,2.781 0 1,0 3.569,6.350
" 
fill="#ffffff" vector-effect="non-scaling-stroke" stroke="#000000" stroke-width="0.100mm" fpd:visible="front back" fpd:print_element="0" />
<path d="
M261.379 62.230
A2.781,2.781 0 1,0 266.941,62.230
A2.781,2.781 0 1,0 261.379,62.230
" 
fill="#ffffff" vector-effect="non-scaling-stroke" stroke="#000000" stroke-width="0.100mm" fpd:visible="front back" fpd:print_element="0" />
<path d="
M261.379 6.350
A2.781,2.781 0 1,0 266.941,6.350
A2.781,2.781 0 1,0 261.379,6.350
" 
fill="#ffffff" vector-effect="non-scaling-stroke" stroke="#000000" stroke-width="0.100mm" fpd:visible="front back" fpd:print_element="0" />
<path d="
M3.569 62.230
A2.781,2.781 0 1,0 9.131,62.230
A2.781,2.781 0 1,0 3.569,62.230
" 
fill="#ffffff" vector-effect="non-scaling-stroke" stroke="#000000" stroke-width="0.100mm" fpd:visible="front back" fpd:print_element="0" />
<path d="
M30.652 34.548
A3.251,3.251 0 1,0 37.154,34.548
A3.251,3.251 0 1,0 30.652,34.548
" 
fill="#ffffff" vector-effect="non-scaling-stroke" stroke="#000000" stroke-width="0.100mm" fpd:visible="front back" fpd:print_element="0" />
<path d="
M32.798 40.644
A1.105,1.105 0 1,0 35.008,40.644
A1.105,1.105 0 1,0 32.798,40.644
" 
fill="#ffffff" vector-effect="non-scaling-stroke" stroke="#000000" stroke-width="0.100mm" fpd:visible="front back" fpd:print_element="0" />
<path d="
M70.611 34.548
A3.251,3.251 0 1,0 77.113,34.548
A3.251,3.251 0 1,0 70.611,34.548
" 
fill="#ffffff" vector-effect="non-scaling-stroke" stroke="#000000" stroke-width="0.100mm" fpd:visible="front back" fpd:print_element="0" />
<path d="
M72.757 40.644
A1.105,1.105 0 1,0 74.967,40.644
A1.105,1.105 0 1,0 72.757,40.644
" 
fill="#ffffff" vector-effect="non-scaling-stroke" stroke="#000000" stroke-width="0.100mm" fpd:visible="front back" fpd:print_element="0" />
<path d="
M110.332 34.548
A3.251,3.251 0 1,0 116.834,34.548
A3.251,3.251 0 1,0 110.332,34.548
" 
fill="#ffffff" vector-effect="non-scaling-stroke" stroke="#000000" stroke-width="0.100mm" fpd:visible="front back" fpd:print_element="0" />
<path d="
M112.478 40.644
A1.105,1.105 0 1,0 114.688,40.644
A1.105,1.105 0 1,0 112.478,40.644
" 
fill="#ffffff" vector-effect="non-scaling-stroke" stroke="#000000" stroke-width="0.100mm" fpd:visible="front back" fpd:print_element="0" />
<path d="
M150.272 34.548
A3.251,3.251 0 1,0 156.774,34.548
A3.251,3.251 0 1,0 150.272,34.548
" 
fill="#ffffff" vector-effect="non-scaling-stroke" stroke="#000000" stroke-width="0.100mm" fpd:visible="front back" fpd:print_element="0" />
<path d="
M152.418 40.644
A1.105,1.105 0 1,0 154.628,40.644
A1.105,1.105 0 1,0 152.418,40.644
" 
fill="#ffffff" vector-effect="non-scaling-stroke" stroke="#000000" stroke-width="0.100mm" fpd:visible="front back" fpd:print_element="0" />
<path d="
M190.119 34.548
A3.251,3.251 0 1,0 196.621,34.548
A3.251,3.251 0 1,0 190.119,34.548
" 
fill="#ffffff" vector-effect="non-scaling-stroke" stroke="#000000" stroke-width="0.100mm" fpd:visible="front back" fpd:print_element="0" />
<path d="
M192.265 40.644
A1.105,1.105 0 1,0 194.475,40.644
A1.105,1.105 0 1,0 192.265,40.644
" 
fill="#ffffff" vector-effect="non-scaling-stroke" stroke="#000000" stroke-width="0.100mm" fpd:visible="front back" fpd:print_element="0" />
<path d="
M264.160 68.580
A6.350,6.350 0 0,0 270.510,62.230
L270.510 6.350
A6.350,6.350 0 0,0 264.160,0.000
L6.350 0.000
A6.350,6.350 0 0,0 0.000,6.350
L0.000 62.230
A6.350,6.350 0 0,0 6.350,68.580
L264.160 68.580
" 
fill="none" vector-effect="non-scaling-stroke" stroke="#000000" stroke-width="0.100mm" fpd:visible="front back" />
</g>
</svg>
